<svg xmlns="http://www.w3.org/2000/svg" viewBox="0 0 217.54 219.54">
    <g id="seat-no-119">
        <rect x="81.54" y="196.56" width="11.5" height="11.5" rx="1.28" ry="1.28"/>
    </g>
    <g id="seat-no-118">
        <rect x="97.79" y="196.56" width="11.5" height="11.5" rx="1.28" ry="1.28"/>
    </g>
    <g id="seat-no-117">
        <rect x="96.72" y="182.86" width="11.5" height="11.5" rx="1.28" ry="1.28" transform="translate(-28.24 18.35) rotate(-9)"/>
    </g>
    <g id="seat-no-116">
        <rect x="93.51" y="169.5" width="11.5" height="11.5" rx="1.28" ry="1.28" transform="translate(-49.3 39.25) rotate(-18)"/>
    </g>
    <g id="seat-no-115">
        <rect x="88.25" y="156.8" width="11.5" height="11.5" rx="1.28" ry="1.28" transform="translate(-63.55 60.39) rotate(-27)"/>
    </g>
    <g id="seat-no-114">
        <rect x="81.06" y="145.08" width="11.5" height="11.5" rx="1.28" ry="1.28" transform="translate(-72.07 79.83) rotate(-36)"/>
    </g>
    <g id="seat-no-113">
        <rect x="72.14" y="134.62" width="11.5" height="11.5" rx="1.28" ry="1.28" transform="translate(-76.45 96.19) rotate(-45)"/>
    </g>
    <g id="seat-no-112">
        <rect x="61.68" y="125.7" width="11.5" height="11.5" rx="1.28" ry="1.28" transform="translate(-78.54 108.74) rotate(-54)"/>
    </g>
    <g id="seat-no-111">
        <rect x="49.96" y="118.51" width="11.5" height="11.5" rx="1.28" ry="1.28" transform="translate(-80.3 117.49) rotate(-63)"/>
    </g>
    <g id="seat-no-110">
        <rect x="37.27" y="113.25" width="11.5" height="11.5" rx="1.28" ry="1.28" transform="translate(-83.46 123.14) rotate(-72)"/>
    </g>
    <g id="seat-no-109">
        <rect x="23.9" y="110.05" width="11.5" height="11.5" rx="1.28" ry="1.28" transform="translate(-89.36 126.97) rotate(-81)"/>
    </g>
    <g id="seat-no-108">
        <rect x="10.2" y="108.97" width="11.5" height="11.5" rx="1.28" ry="1.28" transform="translate(-98.77 130.66) rotate(-90)"/>
    </g>
    <g id="seat-no-107">
        <rect x="114.04" y="196.56" width="11.5" height="11.5" rx="1.28" ry="1.28"/>
    </g>
    <g id="seat-no-106">
        <rect x="112.99" y="181.79" width="11.5" height="11.5" rx="1.28" ry="1.28" transform="translate(-25.48 18.81) rotate(-8.18)"/>
    </g>
    <g id="seat-no-105">
        <rect x="109.84" y="167.31" width="11.5" height="11.5" rx="1.28" ry="1.28" transform="translate(-44.07 39.57) rotate(-16.36)"/>
    </g>
    <g id="seat-no-104">
        <rect x="104.66" y="153.42" width="11.5" height="11.5" rx="1.28" ry="1.28" transform="translate(-56.15 60.25) rotate(-24.55)"/>
    </g>
    <g id="seat-no-103">
        <rect x="97.56" y="140.42" width="11.5" height="11.5" rx="1.28" ry="1.28" transform="translate(-62.63 79.06) rotate(-32.73)"/>
    </g>
    <g id="seat-no-102">
        <rect x="88.68" y="128.56" width="11.5" height="11.5" rx="1.28" ry="1.28" transform="translate(-64.89 94.64) rotate(-40.91)"/>
    </g>
    <g id="seat-no-101">
        <rect x="78.2" y="118.08" width="11.5" height="11.5" rx="1.28" ry="1.28" transform="translate(-64.61 106.19) rotate(-49.09)"/>
    </g>
    <g id="seat-no-100">
        <rect x="66.34" y="109.2" width="11.5" height="11.5" rx="1.28" ry="1.28" transform="translate(-63.59 113.45) rotate(-57.27)"/>
    </g>
    <g id="seat-no-99">
        <rect x="53.34" y="102.1" width="11.5" height="11.5" rx="1.28" ry="1.28" transform="translate(-63.56 116.79) rotate(-65.45)"/>
    </g>
    <g id="seat-no-98">
        <rect x="39.45" y="96.92" width="11.5" height="11.5" rx="1.28" ry="1.28" transform="translate(-66.05 117.12) rotate(-73.64)"/>
    </g>
    <g id="seat-no-97">
        <rect x="24.98" y="93.77" width="11.5" height="11.5" rx="1.28" ry="1.28" transform="matrix(0.14, -0.99, 0.99, 0.14, -72.16, 115.77)"/>
    </g>
    <g id="seat-no-96">
        <rect x="10.2" y="92.72" width="11.5" height="11.5" rx="1.28" ry="1.28" transform="translate(-82.52 114.41) rotate(-90)"/>
    </g>
    <g id="seat-no-95">
        <rect x="130.29" y="196.56" width="11.5" height="11.5" rx="1.28" ry="1.28"/>
    </g>
    <g id="seat-no-94">
        <rect x="129.27" y="180.89" width="11.5" height="11.5" rx="1.28" ry="1.28" transform="matrix(0.99, -0.13, 0.13, 0.99, -23.21, 19.22)"/>
    </g>
    <g id="seat-no-93">
        <rect x="126.2" y="165.48" width="11.5" height="11.5" rx="1.28" ry="1.28" transform="translate(-39.82 39.99) rotate(-15)"/>
    </g>
    <g id="seat-no-92">
        <rect x="121.15" y="150.6" width="11.5" height="11.5" rx="1.28" ry="1.28" transform="translate(-50.17 60.46) rotate(-22.5)"/>
    </g>
    <g id="seat-no-91">
        <rect x="114.2" y="136.52" width="11.5" height="11.5" rx="1.28" ry="1.28" transform="translate(-55.06 79.04) rotate(-30)"/>
    </g>
    <g id="seat-no-90">
        <rect x="105.48" y="123.45" width="11.5" height="11.5" rx="1.28" ry="1.28" transform="translate(-55.67 94.41) rotate(-37.5)"/>
    </g>
    <g id="seat-no-89">
        <rect x="95.12" y="111.64" width="11.5" height="11.5" rx="1.28" ry="1.28" transform="translate(-53.47 105.71) rotate(-45)"/>
    </g>
    <g id="seat-no-88">
        <rect x="83.31" y="101.28" width="11.5" height="11.5" rx="1.28" ry="1.28" transform="translate(-50.07 112.53) rotate(-52.5)"/>
    </g>
    <g id="seat-no-87">
        <rect x="70.25" y="92.56" width="11.5" height="11.5" rx="1.28" ry="1.28" transform="translate(-47.14 114.97) rotate(-60)"/>
    </g>
    <g id="seat-no-86">
        <rect x="56.16" y="85.61" width="11.5" height="11.5" rx="1.28" ry="1.28" transform="translate(-46.19 113.59) rotate(-67.5)"/>
    </g>
    <g id="seat-no-85">
        <rect x="41.28" y="80.56" width="11.5" height="11.5" rx="1.28" ry="1.28" transform="translate(-48.51 109.4) rotate(-75)"/>
    </g>
    <g id="seat-no-84">
        <rect x="25.87" y="77.49" width="11.5" height="11.5" rx="1.28" ry="1.28" transform="translate(-55.04 103.73) rotate(-82.5)"/>
    </g>
    <g id="seat-no-83">
        <rect x="10.2" y="76.47" width="11.5" height="11.5" rx="1.28" ry="1.28" transform="translate(-66.27 98.16) rotate(-90)"/>
    </g>
    <g id="seat-no-82">
        <rect x="146.54" y="196.56" width="11.5" height="11.5" rx="1.28" ry="1.28"/>
    </g>
    <g id="seat-no-81">
        <rect x="145.69" y="181.3" width="11.5" height="11.5" rx="1.28" ry="1.28" transform="translate(-19.99 18.13) rotate(-6.43)"/>
    </g>
    <g id="seat-no-80">
        <rect x="143.13" y="166.22" width="11.5" height="11.5" rx="1.28" ry="1.28" transform="translate(-34.54 37.44) rotate(-12.86)"/>
    </g>
    <g id="seat-no-79">
        <rect x="138.89" y="151.53" width="11.5" height="11.5" rx="1.28" ry="1.28" transform="translate(-43.83 56.6) rotate(-19.29)"/>
    </g>
    <g id="seat-no-78">
        <rect x="133.04" y="137.41" width="11.5" height="11.5" rx="1.28" ry="1.28" transform="translate(-48.37 74.4) rotate(-25.71)"/>
    </g>
    <g id="seat-no-77">
        <rect x="125.64" y="124.02" width="11.5" height="11.5" rx="1.28" ry="1.28" transform="translate(-48.9 89.8) rotate(-32.14)"/>
    </g>
    <g id="seat-no-76">
        <rect x="116.8" y="111.55" width="11.5" height="11.5" rx="1.28" ry="1.28" transform="translate(-46.4 102) rotate(-38.57)"/>
    </g>
    <g id="seat-no-75">
        <rect x="106.61" y="100.15" width="11.5" height="11.5" rx="1.28" ry="1.28" transform="translate(-41.98 110.47) rotate(-45)"/>
    </g>
    <g id="seat-no-74">
        <rect x="95.21" y="89.96" width="11.5" height="11.5" rx="1.28" ry="1.28" transform="translate(-36.82 114.97) rotate(-51.43)"/>
    </g>
    <g id="seat-no-73">
        <rect x="82.74" y="81.12" width="11.5" height="11.5" rx="1.28" ry="1.28" transform="translate(-32.14 115.57) rotate(-57.86)"/>
    </g>
    <g id="seat-no-72">
        <rect x="69.36" y="73.72" width="11.5" height="11.5" rx="1.28" ry="1.28" transform="translate(-29.08 112.66) rotate(-64.29)"/>
    </g>
    <g id="seat-no-71">
        <rect x="55.23" y="67.87" width="11.5" height="11.5" rx="1.28" ry="1.28" transform="matrix(0.33, -0.94, 0.94, 0.33, -28.65, 106.86)"/>
    </g>
    <g id="seat-no-70">
        <rect x="40.54" y="63.64" width="11.5" height="11.5" rx="1.28" ry="1.28" transform="translate(-31.66 99.07) rotate(-77.14)"/>
    </g>
    <g id="seat-no-69">
        <rect x="25.46" y="61.07" width="11.5" height="11.5" rx="1.28" ry="1.28" transform="translate(-38.69 90.36) rotate(-83.57)"/>
    </g>
    <g id="seat-no-68">
        <rect x="10.2" y="60.22" width="11.5" height="11.5" rx="1.28" ry="1.28" transform="translate(-50.02 81.91) rotate(-90)"/>
    </g>
    <g id="seat-no-67">
        <rect x="162.79" y="196.56" width="11.5" height="11.5" rx="1.28" ry="1.28"/>
    </g>
    <g id="seat-no-66">
        <rect x="162.06" y="181.61" width="11.5" height="11.5" rx="1.28" ry="1.28" transform="translate(-17.56 17.35) rotate(-5.62)"/>
    </g>
    <g id="seat-no-65">
        <rect x="159.86" y="166.79" width="11.5" height="11.5" rx="1.28" ry="1.28" transform="translate(-30.48 35.62) rotate(-11.25)"/>
    </g>
    <g id="seat-no-64">
        <rect x="156.22" y="152.27" width="11.5" height="11.5" rx="1.28" ry="1.28" transform="translate(-38.9 53.82) rotate(-16.87)"/>
    </g>
    <g id="seat-no-63">
        <rect x="151.18" y="138.17" width="11.5" height="11.5" rx="1.28" ry="1.28" transform="translate(-43.13 71.01) rotate(-22.5)"/>
    </g>
    <g id="seat-no-62">
        <rect x="144.78" y="124.63" width="11.5" height="11.5" rx="1.28" ry="1.28" transform="translate(-43.69 86.35) rotate(-28.12)"/>
    </g>
    <g id="seat-no-61">
        <rect x="137.08" y="111.79" width="11.5" height="11.5" rx="1.28" ry="1.28" transform="translate(-41.23 99.16) rotate(-33.75)"/>
    </g>
    <g id="seat-no-60">
        <rect x="128.16" y="99.76" width="11.5" height="11.5" rx="1.28" ry="1.28" transform="translate(-36.54 108.9) rotate(-39.37)"/>
    </g>
    <g id="seat-no-59">
        <rect x="118.1" y="88.66" width="11.5" height="11.5" rx="1.28" ry="1.28" transform="translate(-30.48 115.23) rotate(-45)"/>
    </g>
    <g id="seat-no-58">
        <rect x="107" y="78.6" width="11.5" height="11.5" rx="1.28" ry="1.28" transform="translate(-23.98 118) rotate(-50.62)"/>
    </g>
    <g id="seat-no-57">
        <rect x="94.97" y="69.68" width="11.5" height="11.5" rx="1.28" ry="1.28" transform="translate(-17.96 117.27) rotate(-56.25)"/>
    </g>
    <g id="seat-no-56">
        <rect x="82.13" y="61.99" width="11.5" height="11.5" rx="1.28" ry="1.28" transform="translate(-13.28 113.31) rotate(-61.87)"/>
    </g>
    <g id="seat-no-55">
        <rect x="68.59" y="55.58" width="11.5" height="11.5" rx="1.28" ry="1.28" transform="translate(-10.77 106.55) rotate(-67.5)"/>
    </g>
    <g id="seat-no-54">
        <rect x="54.49" y="50.54" width="11.5" height="11.5" rx="1.28" ry="1.28" transform="translate(-11.11 97.6) rotate(-73.12)"/>
    </g>
    <g id="seat-no-53">
        <rect x="39.97" y="46.9" width="11.5" height="11.5" rx="1.28" ry="1.28" transform="translate(-14.84 87.22) rotate(-78.75)"/>
    </g>
    <g id="seat-no-52">
        <rect x="25.15" y="44.7" width="11.5" height="11.5" rx="1.28" ry="1.28" transform="translate(-22.33 76.26) rotate(-84.37)"/>
    </g>
    <g id="seat-no-51">
        <rect x="10.2" y="43.97" width="11.5" height="11.5" rx="1.28" ry="1.28" transform="translate(-33.77 65.66) rotate(-90)"/>
    </g>
    <g id="seat-no-50">
        <rect x="179.04" y="196.56" width="11.5" height="11.5" rx="1.28" ry="1.28"/>
    </g>
    <g id="seat-no-49">
        <rect x="178.4" y="181.85" width="11.5" height="11.5" rx="1.28" ry="1.28" transform="translate(-15.65 16.76) rotate(-5)"/>
    </g>
    <g id="seat-no-48">
        <rect x="176.48" y="167.24" width="11.5" height="11.5" rx="1.28" ry="1.28" transform="translate(-27.27 34.27) rotate(-10)"/>
    </g>
    <g id="seat-no-47">
        <rect x="173.29" y="152.86" width="11.5" height="11.5" rx="1.28" ry="1.28" transform="matrix(0.97, -0.26, 0.26, 0.97, -34.95, 51.74)"/>
    </g>
    <g id="seat-no-46">
        <rect x="168.86" y="138.81" width="11.5" height="11.5" rx="1.28" ry="1.28" transform="translate(-38.91 68.44) rotate(-20)"/>
    </g>
    <g id="seat-no-45">
        <rect x="163.22" y="125.21" width="11.5" height="11.5" rx="1.28" ry="1.28" transform="translate(-39.51 83.68) rotate(-25)"/>
    </g>
    <g id="seat-no-44">
        <rect x="156.42" y="112.14" width="11.5" height="11.5" rx="1.28" ry="1.28" transform="translate(-37.22 96.88) rotate(-30)"/>
    </g>
    <g id="seat-no-43">
        <rect x="148.51" y="99.72" width="11.5" height="11.5" rx="1.28" ry="1.28" transform="translate(-32.6 107.55) rotate(-35)"/>
    </g>
    <g id="seat-no-42">
        <rect x="139.54" y="88.03" width="11.5" height="11.5" rx="1.28" ry="1.28" transform="translate(-26.29 115.33) rotate(-40)"/>
    </g>
    <g id="seat-no-41">
        <rect x="129.59" y="77.17" width="11.5" height="11.5" rx="1.28" ry="1.28" transform="translate(-18.99 119.99) rotate(-45)"/>
    </g>
    <g id="seat-no-40">
        <rect x="118.73" y="67.22" width="11.5" height="11.5" rx="1.28" ry="1.28" transform="translate(-11.43 121.42) rotate(-50)"/>
    </g>
    <g id="seat-no-39">
        <rect x="107.04" y="58.25" width="11.5" height="11.5" rx="1.28" ry="1.28" transform="translate(-4.33 119.69) rotate(-55)"/>
    </g>
    <g id="seat-no-38">
        <rect x="94.62" y="50.34" width="11.5" height="11.5" rx="1.28" ry="1.28" transform="translate(1.61 114.97) rotate(-60)"/>
    </g>
    <g id="seat-no-37">
        <rect x="81.55" y="43.54" width="11.5" height="11.5" rx="1.28" ry="1.28" transform="translate(5.74 107.58) rotate(-65)"/>
    </g>
    <g id="seat-no-36">
        <rect x="67.95" y="37.9" width="11.5" height="11.5" rx="1.28" ry="1.28" transform="matrix(0.34, -0.94, 0.94, 0.34, 7.47, 97.97)"/>
    </g>
    <g id="seat-no-35">
        <rect x="53.9" y="33.47" width="11.5" height="11.5" rx="1.28" ry="1.28" transform="translate(6.33 86.68) rotate(-75)"/>
    </g>
    <g id="seat-no-34">
        <rect x="39.52" y="30.28" width="11.5" height="11.5" rx="1.28" ry="1.28" transform="translate(1.92 74.35) rotate(-80)"/>
    </g>
    <g id="seat-no-33">
        <rect x="24.91" y="28.36" width="11.5" height="11.5" rx="1.28" ry="1.28" transform="translate(-5.99 61.68) rotate(-85)"/>
    </g>
    <g id="seat-no-32">
        <rect x="10.2" y="27.72" width="11.5" height="11.5" rx="1.28" ry="1.28" transform="translate(-17.52 49.41) rotate(-90)"/>
    </g>
    <g id="seat-no-31">
        <rect x="195.29" y="196.56" width="11.5" height="11.5" rx="1.28" ry="1.28"/>
    </g>
    <g id="seat-no-30">
        <rect x="194.72" y="182.04" width="11.5" height="11.5" rx="1.28" ry="1.28" transform="translate(-14.12 16.31) rotate(-4.5)"/>
    </g>
    <g id="seat-no-29">
        <rect x="193.01" y="167.61" width="11.5" height="11.5" rx="1.28" ry="1.28" transform="translate(-24.67 33.23) rotate(-9)"/>
    </g>
    <g id="seat-no-28">
        <rect x="190.18" y="153.35" width="11.5" height="11.5" rx="1.28" ry="1.28" transform="translate(-31.73 50.13) rotate(-13.5)"/>
    </g>
    <g id="seat-no-27">
        <rect x="186.23" y="139.37" width="11.5" height="11.5" rx="1.28" ry="1.28" transform="translate(-35.45 66.43) rotate(-18)"/>
    </g>
    <g id="seat-no-26">
        <rect x="181.2" y="125.73" width="11.5" height="11.5" rx="1.28" ry="1.28" transform="translate(-36.08 81.55) rotate(-22.5)"/>
    </g>
    <g id="seat-no-25">
        <rect x="175.12" y="112.53" width="11.5" height="11.5" rx="1.28" ry="1.28" transform="translate(-33.99 95) rotate(-27)"/>
    </g>
    <g id="seat-no-24">
        <rect x="168.02" y="99.85" width="11.5" height="11.5" rx="1.28" ry="1.28" transform="matrix(0.85, -0.52, 0.52, 0.85, -29.57, 106.35)"/>
    </g>
    <g id="seat-no-23">
        <rect x="159.94" y="87.77" width="11.5" height="11.5" rx="1.28" ry="1.28" transform="translate(-23.32 115.25) rotate(-36)"/>
    </g>
    <g id="seat-no-22">
        <rect x="150.95" y="76.35" width="11.5" height="11.5" rx="1.28" ry="1.28" transform="translate(-15.78 121.44) rotate(-40.5)"/>
    </g>
    <g id="seat-no-21">
        <rect x="141.08" y="65.68" width="11.5" height="11.5" rx="1.28" ry="1.28" transform="translate(-7.5 124.75) rotate(-45)"/>
    </g>
    <g id="seat-no-20">
        <rect x="130.41" y="55.82" width="11.5" height="11.5" rx="1.28" ry="1.28" transform="translate(0.92 125.12) rotate(-49.5)"/>
    </g>
    <g id="seat-no-19">
        <rect x="118.99" y="46.82" width="11.5" height="11.5" rx="1.28" ry="1.28" transform="translate(8.89 122.59) rotate(-54)"/>
    </g>
    <g id="seat-no-18">
        <rect x="106.91" y="38.74" width="11.5" height="11.5" rx="1.28" ry="1.28" transform="translate(15.86 117.3) rotate(-58.5)"/>
    </g>
    <g id="seat-no-17">
        <rect x="94.23" y="31.64" width="11.5" height="11.5" rx="1.28" ry="1.28" transform="translate(21.27 109.5) rotate(-63)"/>
    </g>
    <g id="seat-no-16">
        <rect x="81.03" y="25.56" width="11.5" height="11.5" rx="1.28" ry="1.28" transform="translate(24.65 99.5) rotate(-67.5)"/>
    </g>
    <g id="seat-no-15">
        <rect x="67.39" y="20.53" width="11.5" height="11.5" rx="1.28" ry="1.28" transform="translate(25.55 87.72) rotate(-72)"/>
    </g>
    <g id="seat-no-14">
        <rect x="53.41" y="16.58" width="11.5" height="11.5" rx="1.28" ry="1.28" transform="translate(23.63 74.64) rotate(-76.5)"/>
    </g>
    <g id="seat-no-13">
        <rect x="39.15" y="13.75" width="11.5" height="11.5" rx="1.28" ry="1.28" transform="translate(18.62 60.8) rotate(-81)"/>
    </g>
    <g id="seat-no-12">
        <rect x="24.72" y="12.04" width="11.5" height="11.5" rx="1.28" ry="1.28" transform="matrix(0.08, -1, 1, 0.08, 10.35, 46.77)"/>
    </g>
    <g id="seat-no-11">
        <rect x="10.2" y="11.47" width="11.5" height="11.5" rx="1.28" ry="1.28" transform="translate(-1.27 33.16) rotate(-90)"/>
    </g>
    <g id="seat-no-10">
        <rect x="80.17" y="182.64" width="11.5" height="11.5" rx="1.28" ry="1.28" transform="translate(-35.1 20.38) rotate(-11.25)"/>
    </g>
    <g id="seat-no-9">
        <rect x="76.11" y="169.26" width="11.5" height="11.5" rx="1.28" ry="1.28" transform="translate(-60.74 44.65) rotate(-22.5)"/>
    </g>
    <g id="seat-no-8">
        <rect x="69.52" y="156.93" width="11.5" height="11.5" rx="1.28" ry="1.28" transform="translate(-77.69 69.23) rotate(-33.75)"/>
    </g>
    <g id="seat-no-7">
        <rect x="60.65" y="146.11" width="11.5" height="11.5" rx="1.28" ry="1.28" transform="translate(-87.94 91.43) rotate(-45)"/>
    </g>
    <g id="seat-no-6">
        <rect x="49.83" y="137.24" width="11.5" height="11.5" rx="1.28" ry="1.28" transform="translate(-94.19 109.77) rotate(-56.25)"/>
    </g>
    <g id="seat-no-5">
        <rect x="37.5" y="130.65" width="11.5" height="11.5" rx="1.28" ry="1.28" transform="translate(-99.32 124.16) rotate(-67.5)"/>
    </g>
    <g id="seat-no-4">
        <rect x="24.12" y="126.59" width="11.5" height="11.5" rx="1.28" ry="1.28" transform="translate(-105.76 135.81) rotate(-78.75)"/>
    </g>
    <g id="seat-no-3">
        <rect x="10.2" y="125.22" width="11.5" height="11.5" rx="1.28" ry="1.28" transform="translate(-115.02 146.91) rotate(-90)"/>
    </g>
</svg>